<mxfile host="Electron" modified="2024-06-14T08:34:44.016Z" agent="Mozilla/5.0 (Windows NT 10.0; Win64; x64) AppleWebKit/537.36 (KHTML, like Gecko) draw.io/24.5.3 Chrome/124.0.6367.207 Electron/30.0.6 Safari/537.36" etag="WjNMvH0zqLdJt8B6d882" version="24.5.3" type="device">
  <diagram name="R&amp;I Fließbild für AML" id="uNbX4dtWJDyRmpoOIebO">
    <mxGraphModel dx="1434" dy="854" grid="1" gridSize="4" guides="1" tooltips="1" connect="1" arrows="1" fold="1" page="1" pageScale="1" pageWidth="827" pageHeight="1169" math="0" shadow="0">
      <root>
        <mxCell id="2xSW69GPid3pswhs-_x9-0" />
        <mxCell id="2xSW69GPid3pswhs-_x9-1" parent="2xSW69GPid3pswhs-_x9-0" />
        <mxCell id="2xSW69GPid3pswhs-_x9-2" value="" style="shape=mxgraph.pid.vessels.tank;html=1;pointerEvents=1;align=center;verticalLabelPosition=bottom;verticalAlign=top;dashed=0;" parent="2xSW69GPid3pswhs-_x9-1" vertex="1">
          <mxGeometry x="204" y="496" width="84" height="200" as="geometry" />
        </mxCell>
        <mxCell id="2xSW69GPid3pswhs-_x9-3" value="" style="shape=mxgraph.pid.vessels.tank;html=1;pointerEvents=1;align=center;verticalLabelPosition=bottom;verticalAlign=top;dashed=0;" parent="2xSW69GPid3pswhs-_x9-1" vertex="1">
          <mxGeometry x="544" y="596" width="60" height="100" as="geometry" />
        </mxCell>
        <mxCell id="2xSW69GPid3pswhs-_x9-4" value="" style="shape=mxgraph.pid.vessels.storage_sphere;html=1;pointerEvents=1;align=center;verticalLabelPosition=bottom;verticalAlign=top;dashed=0;" parent="2xSW69GPid3pswhs-_x9-1" vertex="1">
          <mxGeometry x="132" y="112" width="80" height="100" as="geometry" />
        </mxCell>
        <mxCell id="2xSW69GPid3pswhs-_x9-5" value="" style="shape=mxgraph.pid.vessels.storage_sphere;html=1;pointerEvents=1;align=center;verticalLabelPosition=bottom;verticalAlign=top;dashed=0;" parent="2xSW69GPid3pswhs-_x9-1" vertex="1">
          <mxGeometry x="296" y="108" width="80" height="100" as="geometry" />
        </mxCell>
        <mxCell id="2xSW69GPid3pswhs-_x9-6" value="" style="shape=mxgraph.pid.vessels.storage_sphere;html=1;pointerEvents=1;align=center;verticalLabelPosition=bottom;verticalAlign=top;dashed=0;" parent="2xSW69GPid3pswhs-_x9-1" vertex="1">
          <mxGeometry x="560" y="104" width="80" height="100" as="geometry" />
        </mxCell>
        <mxCell id="2xSW69GPid3pswhs-_x9-7" value="" style="shape=mxgraph.pid.vessels.tank;html=1;pointerEvents=1;align=center;verticalLabelPosition=bottom;verticalAlign=top;dashed=0;" parent="2xSW69GPid3pswhs-_x9-1" vertex="1">
          <mxGeometry x="411" y="540" width="68" height="156" as="geometry" />
        </mxCell>
        <mxCell id="2xSW69GPid3pswhs-_x9-8" value="" style="endArrow=classic;html=1;rounded=0;exitX=0.513;exitY=0.93;exitDx=0;exitDy=0;exitPerimeter=0;entryX=0;entryY=0.5;entryDx=0;entryDy=0;entryPerimeter=0;strokeWidth=2;" parent="2xSW69GPid3pswhs-_x9-1" source="2xSW69GPid3pswhs-_x9-4" target="2xSW69GPid3pswhs-_x9-9" edge="1">
          <mxGeometry width="50" height="50" relative="1" as="geometry">
            <mxPoint x="112" y="294" as="sourcePoint" />
            <mxPoint x="162" y="244" as="targetPoint" />
            <Array as="points">
              <mxPoint x="173" y="240" />
              <mxPoint x="220" y="240" />
            </Array>
          </mxGeometry>
        </mxCell>
        <mxCell id="2xSW69GPid3pswhs-_x9-9" value="" style="verticalLabelPosition=bottom;align=center;html=1;verticalAlign=top;pointerEvents=1;dashed=0;shape=mxgraph.pid2valves.valve;valveType=gate;rotation=90;" parent="2xSW69GPid3pswhs-_x9-1" vertex="1">
          <mxGeometry x="200" y="348" width="40" height="32" as="geometry" />
        </mxCell>
        <mxCell id="2xSW69GPid3pswhs-_x9-10" value="" style="verticalLabelPosition=bottom;align=center;html=1;verticalAlign=top;pointerEvents=1;dashed=0;shape=mxgraph.pid2valves.valve;valveType=gate;rotation=90;" parent="2xSW69GPid3pswhs-_x9-1" vertex="1">
          <mxGeometry x="252" y="348" width="40" height="32" as="geometry" />
        </mxCell>
        <mxCell id="2xSW69GPid3pswhs-_x9-11" value="" style="endArrow=classic;html=1;rounded=0;exitX=0.538;exitY=0.94;exitDx=0;exitDy=0;exitPerimeter=0;entryX=-0.025;entryY=0.5;entryDx=0;entryDy=0;entryPerimeter=0;strokeWidth=2;" parent="2xSW69GPid3pswhs-_x9-1" source="2xSW69GPid3pswhs-_x9-5" target="2xSW69GPid3pswhs-_x9-10" edge="1">
          <mxGeometry width="50" height="50" relative="1" as="geometry">
            <mxPoint x="202" y="218" as="sourcePoint" />
            <mxPoint x="200" y="348" as="targetPoint" />
            <Array as="points">
              <mxPoint x="339" y="272" />
              <mxPoint x="272" y="272" />
            </Array>
          </mxGeometry>
        </mxCell>
        <mxCell id="2xSW69GPid3pswhs-_x9-12" value="" style="endArrow=classic;html=1;rounded=0;exitX=1;exitY=0.531;exitDx=0;exitDy=0;exitPerimeter=0;entryX=0.81;entryY=0.02;entryDx=0;entryDy=0;entryPerimeter=0;strokeWidth=2;" parent="2xSW69GPid3pswhs-_x9-1" source="2xSW69GPid3pswhs-_x9-10" target="2xSW69GPid3pswhs-_x9-2" edge="1">
          <mxGeometry width="50" height="50" relative="1" as="geometry">
            <mxPoint x="432" y="378" as="sourcePoint" />
            <mxPoint x="482" y="328" as="targetPoint" />
          </mxGeometry>
        </mxCell>
        <mxCell id="2xSW69GPid3pswhs-_x9-13" value="" style="endArrow=classic;html=1;rounded=0;exitX=1;exitY=0.563;exitDx=0;exitDy=0;exitPerimeter=0;entryX=0.167;entryY=0.01;entryDx=0;entryDy=0;entryPerimeter=0;strokeWidth=2;" parent="2xSW69GPid3pswhs-_x9-1" source="2xSW69GPid3pswhs-_x9-9" target="2xSW69GPid3pswhs-_x9-2" edge="1">
          <mxGeometry width="50" height="50" relative="1" as="geometry">
            <mxPoint x="432" y="378" as="sourcePoint" />
            <mxPoint x="482" y="328" as="targetPoint" />
          </mxGeometry>
        </mxCell>
        <mxCell id="2xSW69GPid3pswhs-_x9-14" value="" style="verticalLabelPosition=bottom;align=center;html=1;verticalAlign=top;pointerEvents=1;dashed=0;shape=mxgraph.pid2valves.valve;valveType=gate;rotation=90;" parent="2xSW69GPid3pswhs-_x9-1" vertex="1">
          <mxGeometry x="582" y="432" width="40" height="32" as="geometry" />
        </mxCell>
        <mxCell id="2xSW69GPid3pswhs-_x9-15" value="" style="endArrow=classic;html=1;rounded=0;exitX=0.513;exitY=0.94;exitDx=0;exitDy=0;exitPerimeter=0;entryX=0;entryY=0.531;entryDx=0;entryDy=0;entryPerimeter=0;strokeWidth=2;" parent="2xSW69GPid3pswhs-_x9-1" source="2xSW69GPid3pswhs-_x9-6" target="2xSW69GPid3pswhs-_x9-14" edge="1">
          <mxGeometry width="50" height="50" relative="1" as="geometry">
            <mxPoint x="432" y="378" as="sourcePoint" />
            <mxPoint x="482" y="328" as="targetPoint" />
          </mxGeometry>
        </mxCell>
        <mxCell id="2xSW69GPid3pswhs-_x9-16" value="" style="endArrow=classic;html=1;rounded=0;exitX=1.025;exitY=0.531;exitDx=0;exitDy=0;exitPerimeter=0;entryX=0.9;entryY=0.04;entryDx=0;entryDy=0;entryPerimeter=0;strokeWidth=2;" parent="2xSW69GPid3pswhs-_x9-1" source="2xSW69GPid3pswhs-_x9-14" target="2xSW69GPid3pswhs-_x9-3" edge="1">
          <mxGeometry width="50" height="50" relative="1" as="geometry">
            <mxPoint x="605" y="202" as="sourcePoint" />
            <mxPoint x="605" y="432" as="targetPoint" />
          </mxGeometry>
        </mxCell>
        <mxCell id="2xSW69GPid3pswhs-_x9-17" value="" style="verticalLabelPosition=bottom;align=center;html=1;verticalAlign=top;pointerEvents=1;dashed=0;shape=mxgraph.pid2valves.valve;valveType=gate;rotation=90;" parent="2xSW69GPid3pswhs-_x9-1" vertex="1">
          <mxGeometry x="554" y="736" width="40" height="32" as="geometry" />
        </mxCell>
        <mxCell id="2xSW69GPid3pswhs-_x9-18" value="" style="shape=mxgraph.pid.vessels.storage_sphere;html=1;pointerEvents=1;align=center;verticalLabelPosition=bottom;verticalAlign=top;dashed=0;" parent="2xSW69GPid3pswhs-_x9-1" vertex="1">
          <mxGeometry x="724" y="788" width="80" height="100" as="geometry" />
        </mxCell>
        <mxCell id="2xSW69GPid3pswhs-_x9-19" value="" style="shape=mxgraph.pid.vessels.storage_sphere;html=1;pointerEvents=1;align=center;verticalLabelPosition=bottom;verticalAlign=top;dashed=0;rotation=-90;" parent="2xSW69GPid3pswhs-_x9-1" vertex="1">
          <mxGeometry x="728" y="784" width="80" height="100" as="geometry" />
        </mxCell>
        <mxCell id="2xSW69GPid3pswhs-_x9-20" value="" style="endArrow=classic;html=1;rounded=0;entryX=-0.025;entryY=0.469;entryDx=0;entryDy=0;entryPerimeter=0;exitX=0.5;exitY=1;exitDx=0;exitDy=0;exitPerimeter=0;strokeWidth=2;" parent="2xSW69GPid3pswhs-_x9-1" source="2xSW69GPid3pswhs-_x9-3" target="2xSW69GPid3pswhs-_x9-17" edge="1">
          <mxGeometry width="50" height="50" relative="1" as="geometry">
            <mxPoint x="500" y="732" as="sourcePoint" />
            <mxPoint x="602" y="604" as="targetPoint" />
          </mxGeometry>
        </mxCell>
        <mxCell id="2xSW69GPid3pswhs-_x9-21" value="" style="endArrow=classic;html=1;rounded=0;exitX=0.975;exitY=0.5;exitDx=0;exitDy=0;exitPerimeter=0;entryX=0.713;entryY=0;entryDx=0;entryDy=0;entryPerimeter=0;strokeWidth=2;" parent="2xSW69GPid3pswhs-_x9-1" source="2xSW69GPid3pswhs-_x9-17" target="2xSW69GPid3pswhs-_x9-19" edge="1">
          <mxGeometry width="50" height="50" relative="1" as="geometry">
            <mxPoint x="578" y="700" as="sourcePoint" />
            <mxPoint x="577" y="739" as="targetPoint" />
            <Array as="points">
              <mxPoint x="572" y="817" />
            </Array>
          </mxGeometry>
        </mxCell>
        <mxCell id="2xSW69GPid3pswhs-_x9-22" value="" style="verticalLabelPosition=bottom;align=center;html=1;verticalAlign=top;pointerEvents=1;dashed=0;shape=mxgraph.pid2valves.valve;valveType=gate;rotation=90;" parent="2xSW69GPid3pswhs-_x9-1" vertex="1">
          <mxGeometry x="226" y="740" width="40" height="32" as="geometry" />
        </mxCell>
        <mxCell id="2xSW69GPid3pswhs-_x9-23" value="" style="endArrow=classic;html=1;rounded=0;entryX=-0.025;entryY=0.469;entryDx=0;entryDy=0;entryPerimeter=0;exitX=0.5;exitY=1;exitDx=0;exitDy=0;exitPerimeter=0;strokeWidth=2;" parent="2xSW69GPid3pswhs-_x9-1" source="2xSW69GPid3pswhs-_x9-2" target="2xSW69GPid3pswhs-_x9-22" edge="1">
          <mxGeometry width="50" height="50" relative="1" as="geometry">
            <mxPoint x="204" y="720" as="sourcePoint" />
            <mxPoint x="276" y="604" as="targetPoint" />
          </mxGeometry>
        </mxCell>
        <mxCell id="2xSW69GPid3pswhs-_x9-24" value="" style="endArrow=classic;html=1;rounded=0;exitX=0.975;exitY=0.5;exitDx=0;exitDy=0;exitPerimeter=0;entryX=0.3;entryY=0;entryDx=0;entryDy=0;entryPerimeter=0;strokeWidth=2;" parent="2xSW69GPid3pswhs-_x9-1" source="2xSW69GPid3pswhs-_x9-22" target="2xSW69GPid3pswhs-_x9-19" edge="1">
          <mxGeometry width="50" height="50" relative="1" as="geometry">
            <mxPoint x="252" y="700" as="sourcePoint" />
            <mxPoint x="392" y="817" as="targetPoint" />
            <Array as="points">
              <mxPoint x="246" y="848" />
            </Array>
          </mxGeometry>
        </mxCell>
        <mxCell id="2xSW69GPid3pswhs-_x9-25" value="&lt;b&gt;M&lt;/b&gt;" style="ellipse;whiteSpace=wrap;html=1;aspect=fixed;" parent="2xSW69GPid3pswhs-_x9-1" vertex="1">
          <mxGeometry x="162" y="740" width="30" height="30" as="geometry" />
        </mxCell>
        <mxCell id="2xSW69GPid3pswhs-_x9-26" value="&lt;p style=&quot;line-height: 80%; font-size: 10px;&quot;&gt;&lt;/p&gt;&lt;table cellpadding=&quot;4&quot; cellspacing=&quot;0&quot; border=&quot;0&quot; style=&quot;font-size: 10px; width: 100%; height: 100%;&quot;&gt;&lt;tbody style=&quot;font-size: 10px;&quot;&gt;&lt;tr style=&quot;font-size: 10px;&quot;&gt;&lt;td style=&quot;font-size: 10px;&quot;&gt;H&lt;/td&gt;&lt;/tr&gt;&lt;tr style=&quot;font-size: 10px;&quot;&gt;&lt;td style=&quot;font-size: 10px;&quot;&gt;&lt;br style=&quot;font-size: 10px;&quot;&gt;&lt;/td&gt;&lt;/tr&gt;&lt;/tbody&gt;&lt;/table&gt; &lt;p style=&quot;line-height: 70%; font-size: 10px;&quot;&gt;&lt;/p&gt;" style="html=1;outlineConnect=0;align=center;dashed=0;aspect=fixed;shape=mxgraph.pid2inst.discInst;mounting=room;spacing=2;fontSize=10;" parent="2xSW69GPid3pswhs-_x9-1" vertex="1">
          <mxGeometry x="161" y="792" width="32" height="32" as="geometry" />
        </mxCell>
        <mxCell id="2xSW69GPid3pswhs-_x9-27" value="" style="endArrow=none;html=1;rounded=0;fontSize=10;strokeWidth=1;exitX=0.5;exitY=0.438;exitDx=0;exitDy=0;exitPerimeter=0;entryX=0;entryY=0.5;entryDx=0;entryDy=0;" parent="2xSW69GPid3pswhs-_x9-1" source="2xSW69GPid3pswhs-_x9-22" target="2xSW69GPid3pswhs-_x9-25" edge="1">
          <mxGeometry width="50" height="50" relative="1" as="geometry">
            <mxPoint x="432" y="542" as="sourcePoint" />
            <mxPoint x="482" y="492" as="targetPoint" />
          </mxGeometry>
        </mxCell>
        <mxCell id="2xSW69GPid3pswhs-_x9-28" value="" style="endArrow=none;html=1;rounded=0;fontSize=10;strokeWidth=1;entryX=0.5;entryY=0;entryDx=0;entryDy=0;exitX=0.5;exitY=1;exitDx=0;exitDy=0;" parent="2xSW69GPid3pswhs-_x9-1" source="2xSW69GPid3pswhs-_x9-25" target="2xSW69GPid3pswhs-_x9-26" edge="1">
          <mxGeometry width="50" height="50" relative="1" as="geometry">
            <mxPoint x="324" y="724" as="sourcePoint" />
            <mxPoint x="288" y="761" as="targetPoint" />
          </mxGeometry>
        </mxCell>
        <mxCell id="2xSW69GPid3pswhs-_x9-29" value="&lt;table cellpadding=&quot;4&quot; cellspacing=&quot;0&quot; border=&quot;0&quot; style=&quot;font-size:1em;width:100%;height:100%;&quot;&gt;&lt;tbody&gt;&lt;tr&gt;&lt;td&gt;&lt;sub&gt;TC&lt;/sub&gt;&lt;/td&gt;&lt;/tr&gt;&lt;tr&gt;&lt;td&gt;&lt;sup&gt;132&lt;/sup&gt;&lt;/td&gt;&lt;/tr&gt;&lt;/tbody&gt;&lt;/table&gt; " style="html=1;outlineConnect=0;align=center;dashed=0;aspect=fixed;shape=mxgraph.pid2inst.discInst;mounting=room" parent="2xSW69GPid3pswhs-_x9-1" vertex="1">
          <mxGeometry x="640" y="629" width="36" height="36" as="geometry" />
        </mxCell>
        <mxCell id="2xSW69GPid3pswhs-_x9-30" value="" style="shape=mxgraph.pid.pumps_-_din.hydraulic;html=1;pointerEvents=1;align=center;verticalLabelPosition=bottom;verticalAlign=top;dashed=0;rotation=-180;" parent="2xSW69GPid3pswhs-_x9-1" vertex="1">
          <mxGeometry x="429" y="720" width="32" height="32" as="geometry" />
        </mxCell>
        <mxCell id="2xSW69GPid3pswhs-_x9-31" value="" style="endArrow=classic;html=1;rounded=0;exitX=0.5;exitY=1;exitDx=0;exitDy=0;exitPerimeter=0;entryX=0.5;entryY=1;entryDx=0;entryDy=0;entryPerimeter=0;strokeWidth=2;" parent="2xSW69GPid3pswhs-_x9-1" source="2xSW69GPid3pswhs-_x9-7" target="2xSW69GPid3pswhs-_x9-30" edge="1">
          <mxGeometry width="50" height="50" relative="1" as="geometry">
            <mxPoint x="523" y="580" as="sourcePoint" />
            <mxPoint x="523" y="810" as="targetPoint" />
          </mxGeometry>
        </mxCell>
        <mxCell id="2xSW69GPid3pswhs-_x9-32" value="" style="endArrow=classic;html=1;rounded=0;exitX=0.5;exitY=0;exitDx=0;exitDy=0;exitPerimeter=0;entryX=0.313;entryY=-0.03;entryDx=0;entryDy=0;entryPerimeter=0;strokeWidth=2;" parent="2xSW69GPid3pswhs-_x9-1" source="2xSW69GPid3pswhs-_x9-30" target="2xSW69GPid3pswhs-_x9-6" edge="1">
          <mxGeometry width="50" height="50" relative="1" as="geometry">
            <mxPoint x="430" y="700" as="sourcePoint" />
            <mxPoint x="430" y="724" as="targetPoint" />
            <Array as="points">
              <mxPoint x="444" y="788" />
              <mxPoint x="392" y="788" />
              <mxPoint x="392" y="80" />
              <mxPoint x="585" y="80" />
            </Array>
          </mxGeometry>
        </mxCell>
        <mxCell id="2xSW69GPid3pswhs-_x9-33" value="" style="shape=singleArrow;direction=south;whiteSpace=wrap;html=1;" parent="2xSW69GPid3pswhs-_x9-1" vertex="1">
          <mxGeometry x="148" y="48" width="16" height="48" as="geometry" />
        </mxCell>
        <mxCell id="2xSW69GPid3pswhs-_x9-34" value="" style="shape=singleArrow;direction=south;whiteSpace=wrap;html=1;" parent="2xSW69GPid3pswhs-_x9-1" vertex="1">
          <mxGeometry x="312" y="48" width="16" height="48" as="geometry" />
        </mxCell>
        <mxCell id="2xSW69GPid3pswhs-_x9-35" value="" style="endArrow=classic;html=1;rounded=0;exitX=1;exitY=0.5;exitDx=0;exitDy=0;exitPerimeter=0;entryX=0.3;entryY=0.01;entryDx=0;entryDy=0;entryPerimeter=0;strokeWidth=2;" parent="2xSW69GPid3pswhs-_x9-1" source="2xSW69GPid3pswhs-_x9-34" target="2xSW69GPid3pswhs-_x9-5" edge="1">
          <mxGeometry width="50" height="50" relative="1" as="geometry">
            <mxPoint x="605" y="202" as="sourcePoint" />
            <mxPoint x="605" y="432" as="targetPoint" />
          </mxGeometry>
        </mxCell>
        <mxCell id="2xSW69GPid3pswhs-_x9-36" value="" style="endArrow=classic;html=1;rounded=0;exitX=1;exitY=0.5;exitDx=0;exitDy=0;exitPerimeter=0;entryX=0.3;entryY=-0.04;entryDx=0;entryDy=0;entryPerimeter=0;strokeWidth=2;" parent="2xSW69GPid3pswhs-_x9-1" source="2xSW69GPid3pswhs-_x9-33" target="2xSW69GPid3pswhs-_x9-4" edge="1">
          <mxGeometry width="50" height="50" relative="1" as="geometry">
            <mxPoint x="324" y="100" as="sourcePoint" />
            <mxPoint x="324" y="110" as="targetPoint" />
          </mxGeometry>
        </mxCell>
        <mxCell id="2xSW69GPid3pswhs-_x9-37" value="" style="shape=singleArrow;direction=south;whiteSpace=wrap;html=1;" parent="2xSW69GPid3pswhs-_x9-1" vertex="1">
          <mxGeometry x="608" y="44" width="16" height="48" as="geometry" />
        </mxCell>
        <mxCell id="2xSW69GPid3pswhs-_x9-38" value="" style="endArrow=classic;html=1;rounded=0;exitX=1;exitY=0.5;exitDx=0;exitDy=0;exitPerimeter=0;entryX=0.3;entryY=-0.02;entryDx=0;entryDy=0;entryPerimeter=0;strokeWidth=2;" parent="2xSW69GPid3pswhs-_x9-1" source="2xSW69GPid3pswhs-_x9-37" edge="1">
          <mxGeometry width="50" height="50" relative="1" as="geometry">
            <mxPoint x="901" y="202" as="sourcePoint" />
            <mxPoint x="616" y="106" as="targetPoint" />
          </mxGeometry>
        </mxCell>
        <mxCell id="2xSW69GPid3pswhs-_x9-39" value="Säure" style="text;html=1;align=center;verticalAlign=middle;whiteSpace=wrap;rounded=0;" parent="2xSW69GPid3pswhs-_x9-1" vertex="1">
          <mxGeometry x="96" y="8" width="120" height="30" as="geometry" />
        </mxCell>
        <mxCell id="2xSW69GPid3pswhs-_x9-40" value="Lauge" style="text;html=1;align=center;verticalAlign=middle;whiteSpace=wrap;rounded=0;" parent="2xSW69GPid3pswhs-_x9-1" vertex="1">
          <mxGeometry x="256" y="8" width="120" height="30" as="geometry" />
        </mxCell>
        <mxCell id="2xSW69GPid3pswhs-_x9-41" value="Wasser + Glycol" style="text;html=1;align=center;verticalAlign=middle;whiteSpace=wrap;rounded=0;" parent="2xSW69GPid3pswhs-_x9-1" vertex="1">
          <mxGeometry x="560" y="8" width="120" height="30" as="geometry" />
        </mxCell>
        <mxCell id="2xSW69GPid3pswhs-_x9-42" value="" style="shape=mxgraph.pid.agitators.agitator_(propeller);html=1;pointerEvents=1;align=center;verticalLabelPosition=bottom;verticalAlign=top;dashed=0;" parent="2xSW69GPid3pswhs-_x9-1" vertex="1">
          <mxGeometry x="218" y="464" width="56" height="176" as="geometry" />
        </mxCell>
        <mxCell id="2xSW69GPid3pswhs-_x9-43" value="" style="shape=mxgraph.pid.agitators.agitator_(propeller);html=1;pointerEvents=1;align=center;verticalLabelPosition=bottom;verticalAlign=top;dashed=0;" parent="2xSW69GPid3pswhs-_x9-1" vertex="1">
          <mxGeometry x="556" y="566" width="36" height="94" as="geometry" />
        </mxCell>
        <mxCell id="2xSW69GPid3pswhs-_x9-44" value="&lt;b&gt;M&lt;/b&gt;" style="ellipse;whiteSpace=wrap;html=1;aspect=fixed;" parent="2xSW69GPid3pswhs-_x9-1" vertex="1">
          <mxGeometry x="231" y="444" width="30" height="30" as="geometry" />
        </mxCell>
        <mxCell id="2xSW69GPid3pswhs-_x9-45" value="&lt;b&gt;M&lt;/b&gt;" style="ellipse;whiteSpace=wrap;html=1;aspect=fixed;" parent="2xSW69GPid3pswhs-_x9-1" vertex="1">
          <mxGeometry x="559" y="548" width="30" height="30" as="geometry" />
        </mxCell>
        <mxCell id="2xSW69GPid3pswhs-_x9-46" value="&lt;table cellpadding=&quot;4&quot; cellspacing=&quot;0&quot; border=&quot;0&quot; style=&quot;font-size:1em;width:100%;height:100%;&quot;&gt;&lt;tbody&gt;&lt;tr&gt;&lt;td&gt;&lt;sub&gt;LC&lt;/sub&gt;&lt;/td&gt;&lt;/tr&gt;&lt;tr&gt;&lt;td&gt;&lt;sup&gt;131&lt;/sup&gt;&lt;/td&gt;&lt;/tr&gt;&lt;/tbody&gt;&lt;/table&gt; " style="html=1;outlineConnect=0;align=center;dashed=0;aspect=fixed;shape=mxgraph.pid2inst.discInst;mounting=room" parent="2xSW69GPid3pswhs-_x9-1" vertex="1">
          <mxGeometry x="640" y="584" width="36" height="36" as="geometry" />
        </mxCell>
        <mxCell id="2xSW69GPid3pswhs-_x9-47" value="" style="endArrow=none;dashed=1;html=1;rounded=0;entryX=0.475;entryY=0.5;entryDx=0;entryDy=0;entryPerimeter=0;exitX=0.5;exitY=0;exitDx=0;exitDy=0;" parent="2xSW69GPid3pswhs-_x9-1" source="2xSW69GPid3pswhs-_x9-46" target="2xSW69GPid3pswhs-_x9-14" edge="1">
          <mxGeometry width="50" height="50" relative="1" as="geometry">
            <mxPoint x="684" y="586" as="sourcePoint" />
            <mxPoint x="734" y="536" as="targetPoint" />
            <Array as="points">
              <mxPoint x="658" y="447" />
            </Array>
          </mxGeometry>
        </mxCell>
        <mxCell id="2xSW69GPid3pswhs-_x9-48" value="&lt;p style=&quot;line-height: 70%;&quot;&gt;&lt;/p&gt;&lt;table cellpadding=&quot;4&quot; cellspacing=&quot;0&quot; border=&quot;0&quot; style=&quot;font-size:1em;width:100%;height:100%;&quot;&gt;&lt;tbody&gt;&lt;tr&gt;&lt;td&gt;&lt;sub&gt;IC&lt;/sub&gt;&lt;/td&gt;&lt;/tr&gt;&lt;tr&gt;&lt;td&gt;&lt;sup&gt;133&lt;/sup&gt;&lt;/td&gt;&lt;/tr&gt;&lt;/tbody&gt;&lt;/table&gt; &lt;p&gt;&lt;/p&gt;" style="html=1;outlineConnect=0;align=center;dashed=0;aspect=fixed;shape=mxgraph.pid2inst.discInst;mounting=room;fillColor=#ffe6cc;strokeColor=#d79b00;" parent="2xSW69GPid3pswhs-_x9-1" vertex="1">
          <mxGeometry x="498" y="628" width="36" height="36" as="geometry" />
        </mxCell>
        <mxCell id="2xSW69GPid3pswhs-_x9-49" value="" style="endArrow=none;dashed=1;html=1;rounded=0;entryX=0.5;entryY=1;entryDx=0;entryDy=0;exitX=0.5;exitY=0.531;exitDx=0;exitDy=0;exitPerimeter=0;fillColor=#ffe6cc;strokeColor=#d79b00;" parent="2xSW69GPid3pswhs-_x9-1" source="2xSW69GPid3pswhs-_x9-17" target="2xSW69GPid3pswhs-_x9-48" edge="1">
          <mxGeometry width="50" height="50" relative="1" as="geometry">
            <mxPoint x="662" y="588" as="sourcePoint" />
            <mxPoint x="606" y="451" as="targetPoint" />
            <Array as="points">
              <mxPoint x="516" y="752" />
            </Array>
          </mxGeometry>
        </mxCell>
        <mxCell id="2xSW69GPid3pswhs-_x9-50" value="" style="endArrow=none;html=1;rounded=0;movable=1;resizable=1;rotatable=1;deletable=1;editable=1;locked=0;connectable=1;" parent="2xSW69GPid3pswhs-_x9-1" source="2xSW69GPid3pswhs-_x9-61" edge="1">
          <mxGeometry width="50" height="50" relative="1" as="geometry">
            <mxPoint x="112" y="643" as="sourcePoint" />
            <mxPoint x="112" y="675" as="targetPoint" />
            <Array as="points">
              <mxPoint x="221" y="643" />
              <mxPoint x="205" y="659" />
              <mxPoint x="221" y="675" />
            </Array>
          </mxGeometry>
        </mxCell>
        <mxCell id="2xSW69GPid3pswhs-_x9-51" value="" style="endArrow=none;html=1;rounded=0;movable=1;resizable=1;rotatable=1;deletable=1;editable=1;locked=0;connectable=1;" parent="2xSW69GPid3pswhs-_x9-1" edge="1">
          <mxGeometry width="50" height="50" relative="1" as="geometry">
            <mxPoint x="622" y="685" as="sourcePoint" />
            <mxPoint x="622" y="664" as="targetPoint" />
            <Array as="points">
              <mxPoint x="590" y="685" />
              <mxPoint x="600" y="676" />
              <mxPoint x="590" y="664" />
            </Array>
          </mxGeometry>
        </mxCell>
        <mxCell id="2xSW69GPid3pswhs-_x9-52" value="el" style="text;html=1;align=center;verticalAlign=middle;whiteSpace=wrap;rounded=0;" parent="2xSW69GPid3pswhs-_x9-1" vertex="1">
          <mxGeometry x="616" y="660" width="28" height="30" as="geometry" />
        </mxCell>
        <mxCell id="2xSW69GPid3pswhs-_x9-53" value="" style="endArrow=none;dashed=1;html=1;rounded=0;entryX=1;entryY=0.5;entryDx=0;entryDy=0;exitX=1;exitY=0.5;exitDx=0;exitDy=0;" parent="2xSW69GPid3pswhs-_x9-1" source="2xSW69GPid3pswhs-_x9-52" target="2xSW69GPid3pswhs-_x9-29" edge="1">
          <mxGeometry width="50" height="50" relative="1" as="geometry">
            <mxPoint x="662" y="588" as="sourcePoint" />
            <mxPoint x="606" y="451" as="targetPoint" />
            <Array as="points">
              <mxPoint x="716" y="675" />
              <mxPoint x="716" y="647" />
            </Array>
          </mxGeometry>
        </mxCell>
        <mxCell id="2xSW69GPid3pswhs-_x9-54" value="" style="endArrow=none;html=1;rounded=0;exitX=1;exitY=0.5;exitDx=0;exitDy=0;entryX=0;entryY=0.5;entryDx=0;entryDy=0;entryPerimeter=0;" parent="2xSW69GPid3pswhs-_x9-1" source="2xSW69GPid3pswhs-_x9-48" target="2xSW69GPid3pswhs-_x9-3" edge="1">
          <mxGeometry width="50" height="50" relative="1" as="geometry">
            <mxPoint x="432" y="474" as="sourcePoint" />
            <mxPoint x="482" y="424" as="targetPoint" />
          </mxGeometry>
        </mxCell>
        <mxCell id="2xSW69GPid3pswhs-_x9-55" value="" style="endArrow=none;html=1;rounded=0;exitX=0;exitY=0.5;exitDx=0;exitDy=0;entryX=1.017;entryY=0.2;entryDx=0;entryDy=0;entryPerimeter=0;" parent="2xSW69GPid3pswhs-_x9-1" source="2xSW69GPid3pswhs-_x9-46" target="2xSW69GPid3pswhs-_x9-3" edge="1">
          <mxGeometry width="50" height="50" relative="1" as="geometry">
            <mxPoint x="432" y="474" as="sourcePoint" />
            <mxPoint x="482" y="424" as="targetPoint" />
          </mxGeometry>
        </mxCell>
        <mxCell id="2xSW69GPid3pswhs-_x9-56" value="" style="endArrow=none;html=1;rounded=0;exitX=0;exitY=0.5;exitDx=0;exitDy=0;entryX=1;entryY=0.5;entryDx=0;entryDy=0;entryPerimeter=0;" parent="2xSW69GPid3pswhs-_x9-1" source="2xSW69GPid3pswhs-_x9-29" target="2xSW69GPid3pswhs-_x9-3" edge="1">
          <mxGeometry width="50" height="50" relative="1" as="geometry">
            <mxPoint x="644" y="606" as="sourcePoint" />
            <mxPoint x="609" y="620" as="targetPoint" />
          </mxGeometry>
        </mxCell>
        <mxCell id="2xSW69GPid3pswhs-_x9-57" value="" style="shape=singleArrow;direction=south;whiteSpace=wrap;html=1;rotation=-90;" parent="2xSW69GPid3pswhs-_x9-1" vertex="1">
          <mxGeometry x="80" y="651" width="16" height="48" as="geometry" />
        </mxCell>
        <mxCell id="2xSW69GPid3pswhs-_x9-58" value="" style="shape=singleArrow;direction=south;whiteSpace=wrap;html=1;rotation=90;" parent="2xSW69GPid3pswhs-_x9-1" vertex="1">
          <mxGeometry x="80" y="620" width="16" height="48" as="geometry" />
        </mxCell>
        <mxCell id="2xSW69GPid3pswhs-_x9-59" value="Kühlung" style="text;html=1;align=center;verticalAlign=middle;whiteSpace=wrap;rounded=0;" parent="2xSW69GPid3pswhs-_x9-1" vertex="1">
          <mxGeometry x="52" y="680" width="60" height="30" as="geometry" />
        </mxCell>
        <mxCell id="2xSW69GPid3pswhs-_x9-60" value="" style="endArrow=none;html=1;rounded=0;movable=1;resizable=1;rotatable=1;deletable=1;editable=1;locked=0;connectable=1;" parent="2xSW69GPid3pswhs-_x9-1" target="2xSW69GPid3pswhs-_x9-61" edge="1">
          <mxGeometry width="50" height="50" relative="1" as="geometry">
            <mxPoint x="112" y="643" as="sourcePoint" />
            <mxPoint x="112" y="675" as="targetPoint" />
            <Array as="points" />
          </mxGeometry>
        </mxCell>
        <mxCell id="2xSW69GPid3pswhs-_x9-61" value="" style="verticalLabelPosition=bottom;align=center;html=1;verticalAlign=top;pointerEvents=1;dashed=0;shape=mxgraph.pid2valves.valve;valveType=gate;rotation=-180;" parent="2xSW69GPid3pswhs-_x9-1" vertex="1">
          <mxGeometry x="124" y="628" width="40" height="32" as="geometry" />
        </mxCell>
        <mxCell id="2xSW69GPid3pswhs-_x9-62" value="&lt;b&gt;M&lt;/b&gt;" style="ellipse;whiteSpace=wrap;html=1;aspect=fixed;" parent="2xSW69GPid3pswhs-_x9-1" vertex="1">
          <mxGeometry x="129" y="590" width="30" height="30" as="geometry" />
        </mxCell>
        <mxCell id="2xSW69GPid3pswhs-_x9-63" value="&lt;table cellpadding=&quot;4&quot; cellspacing=&quot;0&quot; border=&quot;0&quot; style=&quot;font-size:1em;width:100%;height:100%;&quot;&gt;&lt;tbody&gt;&lt;tr&gt;&lt;td&gt;&lt;sub&gt;TC&lt;/sub&gt;&lt;/td&gt;&lt;/tr&gt;&lt;tr&gt;&lt;td&gt;&lt;sup&gt;112&lt;/sup&gt;&lt;/td&gt;&lt;/tr&gt;&lt;/tbody&gt;&lt;/table&gt; " style="html=1;outlineConnect=0;align=center;dashed=0;aspect=fixed;shape=mxgraph.pid2inst.discInst;mounting=room" parent="2xSW69GPid3pswhs-_x9-1" vertex="1">
          <mxGeometry x="126" y="530" width="36" height="36" as="geometry" />
        </mxCell>
        <mxCell id="2xSW69GPid3pswhs-_x9-64" value="" style="endArrow=none;html=1;rounded=0;exitX=0;exitY=0.26;exitDx=0;exitDy=0;entryX=1;entryY=0.5;entryDx=0;entryDy=0;exitPerimeter=0;" parent="2xSW69GPid3pswhs-_x9-1" source="2xSW69GPid3pswhs-_x9-2" target="2xSW69GPid3pswhs-_x9-63" edge="1">
          <mxGeometry width="50" height="50" relative="1" as="geometry">
            <mxPoint x="644" y="606" as="sourcePoint" />
            <mxPoint x="609" y="620" as="targetPoint" />
          </mxGeometry>
        </mxCell>
        <mxCell id="2xSW69GPid3pswhs-_x9-65" value="" style="endArrow=none;dashed=1;html=1;rounded=0;exitX=0.5;exitY=1;exitDx=0;exitDy=0;entryX=0.5;entryY=0;entryDx=0;entryDy=0;" parent="2xSW69GPid3pswhs-_x9-1" source="2xSW69GPid3pswhs-_x9-63" target="2xSW69GPid3pswhs-_x9-62" edge="1">
          <mxGeometry width="50" height="50" relative="1" as="geometry">
            <mxPoint x="432" y="474" as="sourcePoint" />
            <mxPoint x="482" y="424" as="targetPoint" />
          </mxGeometry>
        </mxCell>
        <mxCell id="2xSW69GPid3pswhs-_x9-66" value="" style="endArrow=none;html=1;rounded=0;exitX=0.525;exitY=0.438;exitDx=0;exitDy=0;entryX=0.5;entryY=1;entryDx=0;entryDy=0;exitPerimeter=0;" parent="2xSW69GPid3pswhs-_x9-1" source="2xSW69GPid3pswhs-_x9-61" target="2xSW69GPid3pswhs-_x9-62" edge="1">
          <mxGeometry width="50" height="50" relative="1" as="geometry">
            <mxPoint x="205" y="551" as="sourcePoint" />
            <mxPoint x="166" y="552" as="targetPoint" />
          </mxGeometry>
        </mxCell>
        <mxCell id="2xSW69GPid3pswhs-_x9-67" value="&lt;table cellpadding=&quot;4&quot; cellspacing=&quot;0&quot; border=&quot;0&quot; style=&quot;font-size:1em;width:100%;height:100%;&quot;&gt;&lt;tbody&gt;&lt;tr&gt;&lt;td&gt;&lt;sub&gt;LIC&lt;/sub&gt;&lt;/td&gt;&lt;/tr&gt;&lt;tr&gt;&lt;td&gt;&lt;sup&gt;111&lt;/sup&gt;&lt;/td&gt;&lt;/tr&gt;&lt;/tbody&gt;&lt;/table&gt; " style="html=1;outlineConnect=0;align=center;dashed=0;aspect=fixed;shape=mxgraph.pid2inst.discInst;mounting=room" parent="2xSW69GPid3pswhs-_x9-1" vertex="1">
          <mxGeometry x="124" y="484" width="36" height="36" as="geometry" />
        </mxCell>
        <mxCell id="2xSW69GPid3pswhs-_x9-68" value="" style="endArrow=none;html=1;rounded=0;exitX=-0.012;exitY=0.17;exitDx=0;exitDy=0;entryX=1;entryY=0.5;entryDx=0;entryDy=0;exitPerimeter=0;" parent="2xSW69GPid3pswhs-_x9-1" source="2xSW69GPid3pswhs-_x9-2" target="2xSW69GPid3pswhs-_x9-67" edge="1">
          <mxGeometry width="50" height="50" relative="1" as="geometry">
            <mxPoint x="205" y="551" as="sourcePoint" />
            <mxPoint x="166" y="552" as="targetPoint" />
          </mxGeometry>
        </mxCell>
        <mxCell id="2xSW69GPid3pswhs-_x9-69" value="" style="endArrow=none;dashed=1;html=1;rounded=0;entryX=0.5;entryY=0.5;entryDx=0;entryDy=0;entryPerimeter=0;exitX=0.5;exitY=0;exitDx=0;exitDy=0;" parent="2xSW69GPid3pswhs-_x9-1" source="aS4jMxSHqUvluuCGfRf1-0" target="2xSW69GPid3pswhs-_x9-9" edge="1">
          <mxGeometry width="50" height="50" relative="1" as="geometry">
            <mxPoint x="662" y="588" as="sourcePoint" />
            <mxPoint x="606" y="451" as="targetPoint" />
            <Array as="points">
              <mxPoint x="140" y="364" />
            </Array>
          </mxGeometry>
        </mxCell>
        <mxCell id="2xSW69GPid3pswhs-_x9-70" value="&lt;table cellpadding=&quot;4&quot; cellspacing=&quot;0&quot; border=&quot;0&quot; style=&quot;font-size:1em;width:100%;height:100%;&quot;&gt;&lt;tbody&gt;&lt;tr&gt;&lt;td&gt;&lt;sub&gt;XIC&lt;/sub&gt;&lt;/td&gt;&lt;/tr&gt;&lt;tr&gt;&lt;td&gt;&lt;sup&gt;113&lt;/sup&gt;&lt;/td&gt;&lt;/tr&gt;&lt;/tbody&gt;&lt;/table&gt; " style="html=1;outlineConnect=0;align=center;dashed=0;aspect=fixed;shape=mxgraph.pid2inst.discInst;mounting=room" parent="2xSW69GPid3pswhs-_x9-1" vertex="1">
          <mxGeometry x="314" y="478" width="36" height="36" as="geometry" />
        </mxCell>
        <mxCell id="2xSW69GPid3pswhs-_x9-71" value="" style="endArrow=none;html=1;rounded=0;exitX=1;exitY=0.08;exitDx=0;exitDy=0;entryX=0;entryY=0.5;entryDx=0;entryDy=0;exitPerimeter=0;" parent="2xSW69GPid3pswhs-_x9-1" source="2xSW69GPid3pswhs-_x9-2" target="2xSW69GPid3pswhs-_x9-70" edge="1">
          <mxGeometry width="50" height="50" relative="1" as="geometry">
            <mxPoint x="207" y="534" as="sourcePoint" />
            <mxPoint x="164" y="506" as="targetPoint" />
          </mxGeometry>
        </mxCell>
        <mxCell id="2xSW69GPid3pswhs-_x9-72" value="" style="endArrow=none;dashed=1;html=1;rounded=0;entryX=0.55;entryY=0.563;entryDx=0;entryDy=0;entryPerimeter=0;exitX=0;exitY=0.5;exitDx=0;exitDy=0;" parent="2xSW69GPid3pswhs-_x9-1" source="aS4jMxSHqUvluuCGfRf1-2" target="2xSW69GPid3pswhs-_x9-10" edge="1">
          <mxGeometry width="50" height="50" relative="1" as="geometry">
            <mxPoint x="662" y="588" as="sourcePoint" />
            <mxPoint x="606" y="451" as="targetPoint" />
            <Array as="points" />
          </mxGeometry>
        </mxCell>
        <mxCell id="2xSW69GPid3pswhs-_x9-73" value="" style="rounded=0;whiteSpace=wrap;html=1;" parent="2xSW69GPid3pswhs-_x9-1" vertex="1">
          <mxGeometry x="439" y="432" width="32" height="80" as="geometry" />
        </mxCell>
        <mxCell id="2xSW69GPid3pswhs-_x9-74" value="" style="endArrow=none;html=1;rounded=0;" parent="2xSW69GPid3pswhs-_x9-1" source="2xSW69GPid3pswhs-_x9-77" edge="1">
          <mxGeometry width="50" height="50" relative="1" as="geometry">
            <mxPoint x="427" y="494" as="sourcePoint" />
            <mxPoint x="427" y="448" as="targetPoint" />
            <Array as="points" />
          </mxGeometry>
        </mxCell>
        <mxCell id="2xSW69GPid3pswhs-_x9-75" value="" style="shape=singleArrow;direction=south;whiteSpace=wrap;html=1;rotation=-90;" parent="2xSW69GPid3pswhs-_x9-1" vertex="1">
          <mxGeometry x="407" y="483.5" width="16" height="23" as="geometry" />
        </mxCell>
        <mxCell id="2xSW69GPid3pswhs-_x9-76" value="" style="endArrow=none;html=1;rounded=0;" parent="2xSW69GPid3pswhs-_x9-1" target="2xSW69GPid3pswhs-_x9-77" edge="1">
          <mxGeometry width="50" height="50" relative="1" as="geometry">
            <mxPoint x="427" y="494" as="sourcePoint" />
            <mxPoint x="427" y="448" as="targetPoint" />
            <Array as="points">
              <mxPoint x="467" y="494" />
              <mxPoint x="447" y="472" />
              <mxPoint x="467" y="448" />
            </Array>
          </mxGeometry>
        </mxCell>
        <mxCell id="2xSW69GPid3pswhs-_x9-77" value="" style="shape=singleArrow;direction=south;whiteSpace=wrap;html=1;rotation=90;" parent="2xSW69GPid3pswhs-_x9-1" vertex="1">
          <mxGeometry x="411" y="436" width="16" height="24" as="geometry" />
        </mxCell>
        <mxCell id="2xSW69GPid3pswhs-_x9-78" value="Kühlung" style="text;html=1;align=center;verticalAlign=middle;whiteSpace=wrap;rounded=0;" parent="2xSW69GPid3pswhs-_x9-1" vertex="1">
          <mxGeometry x="389" y="400" width="60" height="30" as="geometry" />
        </mxCell>
        <mxCell id="2xSW69GPid3pswhs-_x9-79" value="" style="endArrow=classic;html=1;rounded=0;exitX=0.167;exitY=0.01;exitDx=0;exitDy=0;exitPerimeter=0;entryX=0.5;entryY=0;entryDx=0;entryDy=0;strokeWidth=2;" parent="2xSW69GPid3pswhs-_x9-1" source="2xSW69GPid3pswhs-_x9-3" target="2xSW69GPid3pswhs-_x9-73" edge="1">
          <mxGeometry width="50" height="50" relative="1" as="geometry">
            <mxPoint x="605" y="202" as="sourcePoint" />
            <mxPoint x="605" y="432" as="targetPoint" />
            <Array as="points">
              <mxPoint x="554" y="356" />
              <mxPoint x="455" y="356" />
            </Array>
          </mxGeometry>
        </mxCell>
        <mxCell id="2xSW69GPid3pswhs-_x9-80" value="" style="endArrow=classic;html=1;rounded=0;exitX=0.5;exitY=1;exitDx=0;exitDy=0;entryX=0.647;entryY=0.006;entryDx=0;entryDy=0;entryPerimeter=0;strokeWidth=2;" parent="2xSW69GPid3pswhs-_x9-1" source="2xSW69GPid3pswhs-_x9-73" target="2xSW69GPid3pswhs-_x9-7" edge="1">
          <mxGeometry width="50" height="50" relative="1" as="geometry">
            <mxPoint x="275" y="388" as="sourcePoint" />
            <mxPoint x="276" y="504" as="targetPoint" />
          </mxGeometry>
        </mxCell>
        <mxCell id="2xSW69GPid3pswhs-_x9-81" value="" style="endArrow=classic;html=1;rounded=0;entryX=1.075;entryY=0.62;entryDx=0;entryDy=0;entryPerimeter=0;strokeWidth=2;" parent="2xSW69GPid3pswhs-_x9-1" source="2xSW69GPid3pswhs-_x9-89" target="2xSW69GPid3pswhs-_x9-19" edge="1">
          <mxGeometry width="50" height="50" relative="1" as="geometry">
            <mxPoint x="220" y="240" as="sourcePoint" />
            <mxPoint x="605" y="432" as="targetPoint" />
            <Array as="points">
              <mxPoint x="776" y="236" />
            </Array>
          </mxGeometry>
        </mxCell>
        <mxCell id="2xSW69GPid3pswhs-_x9-82" value="" style="endArrow=classic;html=1;rounded=0;entryX=0.313;entryY=0;entryDx=0;entryDy=0;entryPerimeter=0;strokeWidth=2;" parent="2xSW69GPid3pswhs-_x9-1" source="2xSW69GPid3pswhs-_x9-87" target="2xSW69GPid3pswhs-_x9-18" edge="1">
          <mxGeometry width="50" height="50" relative="1" as="geometry">
            <mxPoint x="336" y="272" as="sourcePoint" />
            <mxPoint x="783" y="790" as="targetPoint" />
            <Array as="points">
              <mxPoint x="744" y="272" />
            </Array>
          </mxGeometry>
        </mxCell>
        <mxCell id="2xSW69GPid3pswhs-_x9-83" value="" style="endArrow=classic;startArrow=classic;html=1;rounded=0;" parent="2xSW69GPid3pswhs-_x9-1" edge="1">
          <mxGeometry width="50" height="50" relative="1" as="geometry">
            <mxPoint x="304" y="284" as="sourcePoint" />
            <mxPoint x="372" y="284" as="targetPoint" />
          </mxGeometry>
        </mxCell>
        <mxCell id="2xSW69GPid3pswhs-_x9-84" value="" style="endArrow=classic;startArrow=classic;html=1;rounded=0;" parent="2xSW69GPid3pswhs-_x9-1" edge="1">
          <mxGeometry width="50" height="50" relative="1" as="geometry">
            <mxPoint x="228" y="276" as="sourcePoint" />
            <mxPoint x="256" y="248" as="targetPoint" />
            <Array as="points">
              <mxPoint x="228" y="248" />
            </Array>
          </mxGeometry>
        </mxCell>
        <mxCell id="2xSW69GPid3pswhs-_x9-85" value="" style="endArrow=none;dashed=1;html=1;rounded=0;exitX=0;exitY=0.5;exitDx=0;exitDy=0;fillColor=#ffe6cc;strokeColor=#d79b00;entryX=0;entryY=0.5;entryDx=0;entryDy=0;" parent="2xSW69GPid3pswhs-_x9-1" edge="1">
          <mxGeometry width="50" height="50" relative="1" as="geometry">
            <mxPoint x="124" y="502" as="sourcePoint" />
            <mxPoint x="100" y="755" as="targetPoint" />
            <Array as="points">
              <mxPoint x="28" y="502" />
              <mxPoint x="28" y="755" />
            </Array>
          </mxGeometry>
        </mxCell>
        <mxCell id="2xSW69GPid3pswhs-_x9-86" value="" style="endArrow=classic;html=1;rounded=0;strokeWidth=2;" parent="2xSW69GPid3pswhs-_x9-1" edge="1">
          <mxGeometry width="50" height="50" relative="1" as="geometry">
            <mxPoint x="336" y="272" as="sourcePoint" />
            <mxPoint x="744" y="272" as="targetPoint" />
            <Array as="points" />
          </mxGeometry>
        </mxCell>
        <mxCell id="2xSW69GPid3pswhs-_x9-87" value="" style="verticalLabelPosition=bottom;align=center;html=1;verticalAlign=top;pointerEvents=1;dashed=0;shape=mxgraph.pid2valves.valve;valveType=gate;rotation=90;" parent="2xSW69GPid3pswhs-_x9-1" vertex="1">
          <mxGeometry x="728" y="624" width="40" height="32" as="geometry" />
        </mxCell>
        <mxCell id="2xSW69GPid3pswhs-_x9-88" value="" style="endArrow=classic;html=1;rounded=0;strokeWidth=2;" parent="2xSW69GPid3pswhs-_x9-1" edge="1">
          <mxGeometry width="50" height="50" relative="1" as="geometry">
            <mxPoint x="220" y="240" as="sourcePoint" />
            <mxPoint x="776" y="236" as="targetPoint" />
            <Array as="points" />
          </mxGeometry>
        </mxCell>
        <mxCell id="2xSW69GPid3pswhs-_x9-89" value="" style="verticalLabelPosition=bottom;align=center;html=1;verticalAlign=top;pointerEvents=1;dashed=0;shape=mxgraph.pid2valves.valve;valveType=gate;rotation=90;" parent="2xSW69GPid3pswhs-_x9-1" vertex="1">
          <mxGeometry x="760" y="672" width="40" height="32" as="geometry" />
        </mxCell>
        <mxCell id="2xSW69GPid3pswhs-_x9-90" value="&lt;table cellpadding=&quot;4&quot; cellspacing=&quot;0&quot; border=&quot;0&quot; style=&quot;font-size:1em;width:100%;height:100%;&quot;&gt;&lt;tbody&gt;&lt;tr&gt;&lt;td&gt;&lt;sub&gt;XC&lt;/sub&gt;&lt;/td&gt;&lt;/tr&gt;&lt;tr&gt;&lt;td&gt;&lt;sup&gt;143&lt;/sup&gt;&lt;/td&gt;&lt;/tr&gt;&lt;/tbody&gt;&lt;/table&gt; " style="html=1;outlineConnect=0;align=center;dashed=0;aspect=fixed;shape=mxgraph.pid2inst.discInst;mounting=room" parent="2xSW69GPid3pswhs-_x9-1" vertex="1">
          <mxGeometry x="840" y="720" width="36" height="36" as="geometry" />
        </mxCell>
        <mxCell id="2xSW69GPid3pswhs-_x9-91" value="" style="endArrow=none;html=1;rounded=0;exitX=0;exitY=0.5;exitDx=0;exitDy=0;entryX=0.75;entryY=0.79;entryDx=0;entryDy=0;entryPerimeter=0;" parent="2xSW69GPid3pswhs-_x9-1" source="2xSW69GPid3pswhs-_x9-90" target="2xSW69GPid3pswhs-_x9-19" edge="1">
          <mxGeometry width="50" height="50" relative="1" as="geometry">
            <mxPoint x="294" y="534" as="sourcePoint" />
            <mxPoint x="318" y="534" as="targetPoint" />
          </mxGeometry>
        </mxCell>
        <mxCell id="2xSW69GPid3pswhs-_x9-92" value="" style="endArrow=none;dashed=1;html=1;rounded=0;entryX=0.525;entryY=0.5;entryDx=0;entryDy=0;entryPerimeter=0;exitX=0.5;exitY=0;exitDx=0;exitDy=0;" parent="2xSW69GPid3pswhs-_x9-1" source="2xSW69GPid3pswhs-_x9-90" target="2xSW69GPid3pswhs-_x9-87" edge="1">
          <mxGeometry width="50" height="50" relative="1" as="geometry">
            <mxPoint x="662" y="588" as="sourcePoint" />
            <mxPoint x="606" y="451" as="targetPoint" />
            <Array as="points">
              <mxPoint x="856" y="641" />
            </Array>
          </mxGeometry>
        </mxCell>
        <mxCell id="2xSW69GPid3pswhs-_x9-93" value="" style="endArrow=none;dashed=1;html=1;rounded=0;entryX=0.525;entryY=0.531;entryDx=0;entryDy=0;entryPerimeter=0;" parent="2xSW69GPid3pswhs-_x9-1" target="2xSW69GPid3pswhs-_x9-89" edge="1">
          <mxGeometry width="50" height="50" relative="1" as="geometry">
            <mxPoint x="860" y="689" as="sourcePoint" />
            <mxPoint x="438" y="608" as="targetPoint" />
          </mxGeometry>
        </mxCell>
        <mxCell id="2xSW69GPid3pswhs-_x9-94" value="" style="verticalLabelPosition=bottom;align=center;html=1;verticalAlign=top;pointerEvents=1;dashed=0;shape=mxgraph.pid2valves.valve;valveType=gate;rotation=-180;" parent="2xSW69GPid3pswhs-_x9-1" vertex="1">
          <mxGeometry x="840" y="818" width="40" height="32" as="geometry" />
        </mxCell>
        <mxCell id="2xSW69GPid3pswhs-_x9-95" value="" style="endArrow=none;dashed=1;html=1;rounded=0;entryX=0.525;entryY=0.531;entryDx=0;entryDy=0;entryPerimeter=0;exitX=0.5;exitY=1;exitDx=0;exitDy=0;" parent="2xSW69GPid3pswhs-_x9-1" source="2xSW69GPid3pswhs-_x9-90" target="2xSW69GPid3pswhs-_x9-94" edge="1">
          <mxGeometry width="50" height="50" relative="1" as="geometry">
            <mxPoint x="864" y="693" as="sourcePoint" />
            <mxPoint x="783" y="693" as="targetPoint" />
          </mxGeometry>
        </mxCell>
        <mxCell id="2xSW69GPid3pswhs-_x9-96" value="" style="endArrow=classic;html=1;rounded=0;entryX=1;entryY=0.438;entryDx=0;entryDy=0;entryPerimeter=0;exitX=0.488;exitY=0.91;exitDx=0;exitDy=0;exitPerimeter=0;strokeWidth=2;" parent="2xSW69GPid3pswhs-_x9-1" source="2xSW69GPid3pswhs-_x9-19" target="2xSW69GPid3pswhs-_x9-94" edge="1">
          <mxGeometry width="50" height="50" relative="1" as="geometry">
            <mxPoint x="250" y="700" as="sourcePoint" />
            <mxPoint x="251" y="739" as="targetPoint" />
          </mxGeometry>
        </mxCell>
        <mxCell id="2xSW69GPid3pswhs-_x9-97" value="" style="shape=singleArrow;direction=south;whiteSpace=wrap;html=1;rotation=-90;" parent="2xSW69GPid3pswhs-_x9-1" vertex="1">
          <mxGeometry x="896" y="808.5" width="16" height="48" as="geometry" />
        </mxCell>
        <mxCell id="2xSW69GPid3pswhs-_x9-98" value="Abwasser" style="text;html=1;align=center;verticalAlign=middle;whiteSpace=wrap;rounded=0;" parent="2xSW69GPid3pswhs-_x9-1" vertex="1">
          <mxGeometry x="880" y="854" width="60" height="30" as="geometry" />
        </mxCell>
        <mxCell id="2xSW69GPid3pswhs-_x9-99" value="&lt;font style=&quot;font-size: 15px;&quot;&gt;TW&lt;/font&gt;" style="text;html=1;align=center;verticalAlign=middle;whiteSpace=wrap;rounded=0;" parent="2xSW69GPid3pswhs-_x9-1" vertex="1">
          <mxGeometry x="734" y="819" width="60" height="30" as="geometry" />
        </mxCell>
        <mxCell id="2xSW69GPid3pswhs-_x9-100" value="&lt;font style=&quot;font-size: 15px;&quot;&gt;TS&lt;/font&gt;" style="text;html=1;align=center;verticalAlign=middle;whiteSpace=wrap;rounded=0;" parent="2xSW69GPid3pswhs-_x9-1" vertex="1">
          <mxGeometry x="560" y="660" width="24" height="30" as="geometry" />
        </mxCell>
        <mxCell id="2xSW69GPid3pswhs-_x9-101" value="&lt;font style=&quot;font-size: 15px;&quot;&gt;TM&lt;/font&gt;" style="text;html=1;align=center;verticalAlign=middle;whiteSpace=wrap;rounded=0;" parent="2xSW69GPid3pswhs-_x9-1" vertex="1">
          <mxGeometry x="433" y="644" width="24" height="30" as="geometry" />
        </mxCell>
        <mxCell id="2xSW69GPid3pswhs-_x9-102" value="&lt;font style=&quot;font-size: 15px;&quot;&gt;TB&lt;/font&gt;" style="text;html=1;align=center;verticalAlign=middle;whiteSpace=wrap;rounded=0;" parent="2xSW69GPid3pswhs-_x9-1" vertex="1">
          <mxGeometry x="234" y="642" width="24" height="30" as="geometry" />
        </mxCell>
        <mxCell id="aS4jMxSHqUvluuCGfRf1-1" value="" style="endArrow=none;dashed=1;html=1;rounded=0;entryX=0.5;entryY=0.5;entryDx=0;entryDy=0;entryPerimeter=0;exitX=0.5;exitY=0;exitDx=0;exitDy=0;" edge="1" parent="2xSW69GPid3pswhs-_x9-1" source="2xSW69GPid3pswhs-_x9-67" target="aS4jMxSHqUvluuCGfRf1-0">
          <mxGeometry width="50" height="50" relative="1" as="geometry">
            <mxPoint x="142" y="484" as="sourcePoint" />
            <mxPoint x="220" y="364" as="targetPoint" />
            <Array as="points" />
          </mxGeometry>
        </mxCell>
        <mxCell id="aS4jMxSHqUvluuCGfRf1-0" value="&lt;table cellpadding=&quot;4&quot; cellspacing=&quot;0&quot; border=&quot;0&quot; style=&quot;font-size:1em;width:100%;height:100%;&quot;&gt;&lt;tbody&gt;&lt;tr&gt;&lt;td&gt;&lt;sub&gt;YXC&lt;/sub&gt;&lt;/td&gt;&lt;/tr&gt;&lt;tr&gt;&lt;td&gt;&lt;sup&gt;111&lt;/sup&gt;&lt;/td&gt;&lt;/tr&gt;&lt;/tbody&gt;&lt;/table&gt; " style="html=1;outlineConnect=0;align=center;dashed=0;aspect=fixed;shape=mxgraph.pid2inst.discInst;mounting=room" vertex="1" parent="2xSW69GPid3pswhs-_x9-1">
          <mxGeometry x="122" y="346" width="36" height="36" as="geometry" />
        </mxCell>
        <mxCell id="aS4jMxSHqUvluuCGfRf1-3" value="" style="endArrow=none;dashed=1;html=1;rounded=0;entryX=0.55;entryY=0.563;entryDx=0;entryDy=0;entryPerimeter=0;exitX=0.5;exitY=0;exitDx=0;exitDy=0;" edge="1" parent="2xSW69GPid3pswhs-_x9-1" source="2xSW69GPid3pswhs-_x9-70" target="aS4jMxSHqUvluuCGfRf1-2">
          <mxGeometry width="50" height="50" relative="1" as="geometry">
            <mxPoint x="332" y="512" as="sourcePoint" />
            <mxPoint x="270" y="366" as="targetPoint" />
            <Array as="points">
              <mxPoint x="332" y="366" />
            </Array>
          </mxGeometry>
        </mxCell>
        <mxCell id="aS4jMxSHqUvluuCGfRf1-2" value="&lt;table cellpadding=&quot;4&quot; cellspacing=&quot;0&quot; border=&quot;0&quot; style=&quot;font-size:1em;width:100%;height:100%;&quot;&gt;&lt;tbody&gt;&lt;tr&gt;&lt;td&gt;&lt;sub&gt;YXC&lt;/sub&gt;&lt;/td&gt;&lt;/tr&gt;&lt;tr&gt;&lt;td&gt;&lt;sup&gt;113&lt;/sup&gt;&lt;/td&gt;&lt;/tr&gt;&lt;/tbody&gt;&lt;/table&gt; " style="html=1;outlineConnect=0;align=center;dashed=0;aspect=fixed;shape=mxgraph.pid2inst.discInst;mounting=room" vertex="1" parent="2xSW69GPid3pswhs-_x9-1">
          <mxGeometry x="313" y="349" width="36" height="36" as="geometry" />
        </mxCell>
        <mxCell id="aS4jMxSHqUvluuCGfRf1-4" value="&lt;table cellpadding=&quot;4&quot; cellspacing=&quot;0&quot; border=&quot;0&quot; style=&quot;font-size:1em;width:100%;height:100%;&quot;&gt;&lt;tbody&gt;&lt;tr&gt;&lt;td&gt;&lt;span style=&quot;font-size: 10px;&quot;&gt;&lt;sub&gt;LOAH&lt;/sub&gt;&lt;/span&gt;&lt;/td&gt;&lt;/tr&gt;&lt;tr&gt;&lt;td&gt;&lt;sup&gt;114&lt;br&gt;&lt;/sup&gt;&lt;/td&gt;&lt;/tr&gt;&lt;/tbody&gt;&lt;/table&gt; " style="html=1;outlineConnect=0;align=center;dashed=0;aspect=fixed;shape=mxgraph.pid2inst.discInst;mounting=room" vertex="1" parent="2xSW69GPid3pswhs-_x9-1">
          <mxGeometry x="158" y="436" width="39" height="39" as="geometry" />
        </mxCell>
        <mxCell id="aS4jMxSHqUvluuCGfRf1-5" value="&lt;table cellpadding=&quot;4&quot; cellspacing=&quot;0&quot; border=&quot;0&quot; style=&quot;font-size:1em;width:100%;height:100%;&quot;&gt;&lt;tbody&gt;&lt;tr&gt;&lt;td&gt;&lt;span style=&quot;font-size: 10px;&quot;&gt;&lt;sub&gt;LOAL&lt;/sub&gt;&lt;/span&gt;&lt;/td&gt;&lt;/tr&gt;&lt;tr&gt;&lt;td&gt;&lt;sup&gt;115&lt;br&gt;&lt;/sup&gt;&lt;/td&gt;&lt;/tr&gt;&lt;/tbody&gt;&lt;/table&gt; " style="html=1;outlineConnect=0;align=center;dashed=0;aspect=fixed;shape=mxgraph.pid2inst.discInst;mounting=room" vertex="1" parent="2xSW69GPid3pswhs-_x9-1">
          <mxGeometry x="188" y="696" width="36" height="36" as="geometry" />
        </mxCell>
        <mxCell id="aS4jMxSHqUvluuCGfRf1-6" value="" style="endArrow=none;html=1;rounded=0;exitX=0.25;exitY=0.985;exitDx=0;exitDy=0;entryX=1;entryY=0.5;entryDx=0;entryDy=0;exitPerimeter=0;" edge="1" parent="2xSW69GPid3pswhs-_x9-1" source="2xSW69GPid3pswhs-_x9-2" target="aS4jMxSHqUvluuCGfRf1-5">
          <mxGeometry width="50" height="50" relative="1" as="geometry">
            <mxPoint x="644" y="606" as="sourcePoint" />
            <mxPoint x="609" y="620" as="targetPoint" />
          </mxGeometry>
        </mxCell>
        <mxCell id="aS4jMxSHqUvluuCGfRf1-7" value="" style="endArrow=none;html=1;rounded=0;exitX=0.06;exitY=0.04;exitDx=0;exitDy=0;entryX=0.822;entryY=0.933;entryDx=0;entryDy=0;entryPerimeter=0;exitPerimeter=0;" edge="1" parent="2xSW69GPid3pswhs-_x9-1" source="2xSW69GPid3pswhs-_x9-2" target="aS4jMxSHqUvluuCGfRf1-4">
          <mxGeometry width="50" height="50" relative="1" as="geometry">
            <mxPoint x="223" y="698" as="sourcePoint" />
            <mxPoint x="199" y="713" as="targetPoint" />
          </mxGeometry>
        </mxCell>
        <mxCell id="aS4jMxSHqUvluuCGfRf1-8" value="&lt;table cellpadding=&quot;4&quot; cellspacing=&quot;0&quot; border=&quot;0&quot; style=&quot;font-size:1em;width:100%;height:100%;&quot;&gt;&lt;tbody&gt;&lt;tr&gt;&lt;td&gt;&lt;span style=&quot;font-size: 10px;&quot;&gt;&lt;sub&gt;YCZ&lt;/sub&gt;&lt;/span&gt;&lt;/td&gt;&lt;/tr&gt;&lt;tr&gt;&lt;td&gt;&lt;sup&gt;111&lt;/sup&gt;&lt;/td&gt;&lt;/tr&gt;&lt;/tbody&gt;&lt;/table&gt; " style="html=1;outlineConnect=0;align=center;dashed=0;aspect=fixed;shape=mxgraph.pid2inst.discInst;mounting=room" vertex="1" parent="2xSW69GPid3pswhs-_x9-1">
          <mxGeometry x="100" y="737" width="36" height="36" as="geometry" />
        </mxCell>
        <mxCell id="aS4jMxSHqUvluuCGfRf1-9" value="" style="endArrow=none;dashed=1;html=1;rounded=0;entryX=1;entryY=0.5;entryDx=0;entryDy=0;exitX=0;exitY=0.5;exitDx=0;exitDy=0;fillColor=#ffe6cc;strokeColor=#d79b00;" edge="1" parent="2xSW69GPid3pswhs-_x9-1" source="2xSW69GPid3pswhs-_x9-25" target="aS4jMxSHqUvluuCGfRf1-8">
          <mxGeometry width="50" height="50" relative="1" as="geometry">
            <mxPoint x="132" y="876.5" as="sourcePoint" />
            <mxPoint x="75" y="788.5" as="targetPoint" />
            <Array as="points" />
          </mxGeometry>
        </mxCell>
        <mxCell id="aS4jMxSHqUvluuCGfRf1-10" value="&lt;table cellpadding=&quot;4&quot; cellspacing=&quot;0&quot; border=&quot;0&quot; style=&quot;font-size:1em;width:100%;height:100%;&quot;&gt;&lt;tbody&gt;&lt;tr&gt;&lt;td&gt;&lt;sub&gt;MSL&lt;/sub&gt;&lt;/td&gt;&lt;/tr&gt;&lt;tr&gt;&lt;td&gt;&lt;sup&gt;115&lt;/sup&gt;&lt;/td&gt;&lt;/tr&gt;&lt;/tbody&gt;&lt;/table&gt; " style="html=1;outlineConnect=0;align=center;dashed=0;aspect=fixed;shape=mxgraph.pid2inst.discInst;mounting=room" vertex="1" parent="2xSW69GPid3pswhs-_x9-1">
          <mxGeometry x="140" y="696" width="36" height="36" as="geometry" />
        </mxCell>
        <mxCell id="aS4jMxSHqUvluuCGfRf1-11" value="&lt;table cellpadding=&quot;4&quot; cellspacing=&quot;0&quot; border=&quot;0&quot; style=&quot;font-size:1em;width:100%;height:100%;&quot;&gt;&lt;tbody&gt;&lt;tr&gt;&lt;td&gt;&lt;span style=&quot;font-size: 10px;&quot;&gt;&lt;sub&gt;ZZL&lt;/sub&gt;&lt;/span&gt;&lt;/td&gt;&lt;/tr&gt;&lt;tr&gt;&lt;td&gt;&lt;sup&gt;114&lt;/sup&gt;&lt;/td&gt;&lt;/tr&gt;&lt;/tbody&gt;&lt;/table&gt; " style="html=1;outlineConnect=0;align=center;dashed=0;aspect=fixed;shape=mxgraph.pid2inst.discInst;mounting=room" vertex="1" parent="2xSW69GPid3pswhs-_x9-1">
          <mxGeometry x="159" y="380" width="36" height="36" as="geometry" />
        </mxCell>
        <mxCell id="aS4jMxSHqUvluuCGfRf1-12" value="" style="endArrow=none;dashed=1;html=1;rounded=0;entryX=0.855;entryY=0.855;entryDx=0;entryDy=0;entryPerimeter=0;exitX=0;exitY=0.5;exitDx=0;exitDy=0;" edge="1" parent="2xSW69GPid3pswhs-_x9-1" source="aS4jMxSHqUvluuCGfRf1-11" target="aS4jMxSHqUvluuCGfRf1-0">
          <mxGeometry width="50" height="50" relative="1" as="geometry">
            <mxPoint x="146" y="488" as="sourcePoint" />
            <mxPoint x="144" y="368" as="targetPoint" />
            <Array as="points" />
          </mxGeometry>
        </mxCell>
        <mxCell id="aS4jMxSHqUvluuCGfRf1-13" value="" style="endArrow=none;dashed=1;html=1;rounded=0;entryX=0.145;entryY=0.855;entryDx=0;entryDy=0;entryPerimeter=0;exitX=1;exitY=0.5;exitDx=0;exitDy=0;" edge="1" parent="2xSW69GPid3pswhs-_x9-1" source="aS4jMxSHqUvluuCGfRf1-11" target="aS4jMxSHqUvluuCGfRf1-2">
          <mxGeometry width="50" height="50" relative="1" as="geometry">
            <mxPoint x="163" y="402" as="sourcePoint" />
            <mxPoint x="157" y="381" as="targetPoint" />
            <Array as="points">
              <mxPoint x="318" y="398" />
            </Array>
          </mxGeometry>
        </mxCell>
        <mxCell id="aS4jMxSHqUvluuCGfRf1-14" value="" style="endArrow=none;dashed=1;html=1;rounded=0;entryX=0.5;entryY=1;entryDx=0;entryDy=0;exitX=0.5;exitY=0;exitDx=0;exitDy=0;" edge="1" parent="2xSW69GPid3pswhs-_x9-1" source="aS4jMxSHqUvluuCGfRf1-4" target="aS4jMxSHqUvluuCGfRf1-11">
          <mxGeometry width="50" height="50" relative="1" as="geometry">
            <mxPoint x="163" y="402" as="sourcePoint" />
            <mxPoint x="157" y="381" as="targetPoint" />
            <Array as="points" />
          </mxGeometry>
        </mxCell>
        <mxCell id="aS4jMxSHqUvluuCGfRf1-16" value="" style="endArrow=none;dashed=1;html=1;rounded=0;entryX=0;entryY=0.5;entryDx=0;entryDy=0;exitX=1;exitY=0.5;exitDx=0;exitDy=0;" edge="1" parent="2xSW69GPid3pswhs-_x9-1" source="aS4jMxSHqUvluuCGfRf1-10" target="aS4jMxSHqUvluuCGfRf1-5">
          <mxGeometry width="50" height="50" relative="1" as="geometry">
            <mxPoint x="146" y="488" as="sourcePoint" />
            <mxPoint x="144" y="368" as="targetPoint" />
            <Array as="points" />
          </mxGeometry>
        </mxCell>
        <mxCell id="aS4jMxSHqUvluuCGfRf1-17" value="" style="endArrow=none;dashed=1;html=1;rounded=0;entryX=0.5;entryY=1;entryDx=0;entryDy=0;exitX=0.5;exitY=0;exitDx=0;exitDy=0;" edge="1" parent="2xSW69GPid3pswhs-_x9-1" source="2xSW69GPid3pswhs-_x9-25" target="aS4jMxSHqUvluuCGfRf1-10">
          <mxGeometry width="50" height="50" relative="1" as="geometry">
            <mxPoint x="180" y="718" as="sourcePoint" />
            <mxPoint x="192" y="718" as="targetPoint" />
            <Array as="points" />
          </mxGeometry>
        </mxCell>
      </root>
    </mxGraphModel>
  </diagram>
</mxfile>
